# Rhino

g object_1
v -72.74613189697266 2 -42
v -69.95724487304688 2 -37.50286483764648
v -66.84271240234375 2 -33.12710571289063
v -63.40907287597656 2 -28.90653800964356
v -59.66741943359375 2 -24.87471771240234
v -55.63345336914063 2 -21.06416702270508
v -51.32734680175781 2 -17.50561332702637
v -46.77347946166992 2 -14.22721385955811
v -42 2 -11.25386619567871
v -37.03826522827148 2 -8.606586456298828
v -31.92215538024902 2 -6.30202054977417
v -26.68730354309082 2 -4.352100849151611
v -21.37028694152832 2 -2.76385760307312
v -16.0078010559082 2 -1.539401412010193
v -10.63586330413818 2 -0.6760633587837219
v -5.289078712463379 2 -0.1666793972253799
v -1.187982004435817e-14 2 0
v 5.289078712463379 2 -0.1666793972253799
v 10.63586330413818 2 -0.6760633587837219
v 16.0078010559082 2 -1.539401412010193
v 21.37028694152832 2 -2.76385760307312
v 26.68730354309082 2 -4.352100849151611
v 31.92215538024902 2 -6.30202054977417
v 37.03826522827148 2 -8.606586456298828
v 42 2 -11.25386619567871
v 46.77347946166992 2 -14.22721385955811
v 51.32734680175781 2 -17.50561332702637
v 55.63345336914063 2 -21.06416702270508
v 59.66741943359375 2 -24.87471771240234
v 63.40907287597656 2 -28.90653800964356
v 66.84271240234375 2 -33.12710571289063
v 69.95724487304688 2 -37.50286483764648
v 72.74613189697266 2 -42
v 72.74613189697266 2 -42
v 72.74613189697266 4 -42
v 66.84271240234375 2 -33.12710571289063
v 51.32734680175781 2 -17.50561332702637
v 42 2 -11.25386619567871
v 31.92215538024902 2 -6.30202054977417
v -1.187982004435817e-14 2 0
v -1.187982004435817e-14 4 0
v -10.63586330413818 2 -0.6760633587837219
v -10.63586330413818 4 -0.6760633587837219
v -21.37028694152832 2 -2.76385760307312
v -21.37028694152832 4 -2.76385760307312
v -31.92215538024902 2 -6.30202054977417
v -31.92215538024902 4 -6.30202054977417
v -51.32734680175781 2 -17.50561332702637
v -51.32734680175781 4 -17.50561332702637
v -59.66741943359375 2 -24.87471771240234
v -59.66741943359375 4 -24.87471771240234
v -66.84271240234375 2 -33.12710571289063
v -66.84271240234375 4 -33.12710571289063
v -72.74613189697266 2 -42
v -72.74613189697266 4 -42
v 69.95724487304688 2 -37.50286483764648
v 63.40907287597656 2 -28.90653800964356
v 59.66741943359375 2 -24.87471771240234
v 55.63345336914063 2 -21.06416702270508
v 46.77347946166992 2 -14.22721385955811
v 37.03826522827148 2 -8.606586456298828
v 26.68730354309082 2 -4.352100849151611
v 21.37028694152832 2 -2.76385760307312
v 16.0078010559082 2 -1.539401412010193
v 10.63586330413818 2 -0.6760633587837219
v 5.289078712463379 2 -0.1666793972253799
v -5.289078712463379 2 -0.1666793972253799
v -16.0078010559082 2 -1.539401412010193
v -26.68730354309082 2 -4.352100849151611
v -37.03826522827148 2 -8.606586456298828
v -42 2 -11.25386619567871
v -46.77347946166992 2 -14.22721385955811
v -55.63345336914063 2 -21.06416702270508
v -63.40907287597656 2 -28.90653800964356
v -69.95724487304688 2 -37.50286483764648
v -69.95724487304688 4 -37.50286483764648
v -63.40907287597656 4 -28.90653800964356
v -55.63345336914063 4 -21.06416702270508
v -46.77347946166992 4 -14.22721385955811
v -42 4 -11.25386619567871
v -37.03826522827148 4 -8.606586456298828
v -26.68730354309082 4 -4.352100849151611
v -16.0078010559082 4 -1.539401412010193
v -5.289078712463379 4 -0.1666793972253799
v 5.289078712463379 4 -0.1666793972253799
v 10.63586330413818 4 -0.6760633587837219
v 16.0078010559082 4 -1.539401412010193
v 21.37028694152832 4 -2.76385760307312
v 26.68730354309082 4 -4.352100849151611
v 31.92215538024902 4 -6.30202054977417
v 37.03826522827148 4 -8.606586456298828
v 42 4 -11.25386619567871
v 46.77347946166992 4 -14.22721385955811
v 51.32734680175781 4 -17.50561332702637
v 55.63345336914063 4 -21.06416702270508
v 59.66741943359375 4 -24.87471771240234
v 63.40907287597656 4 -28.90653800964356
v 66.84271240234375 4 -33.12710571289063
v 69.95724487304688 4 -37.50286483764648
v -72.74613189697266 2 -42
v -72.74613189697266 4 -42
v 72.74613189697266 2 -42
v 72.74613189697266 4 -42
v -72.74613189697266 4 -42
v -69.95724487304688 4 -37.50286483764648
v -66.84271240234375 4 -33.12710571289063
v -63.40907287597656 4 -28.90653800964356
v -59.66741943359375 4 -24.87471771240234
v -55.63345336914063 4 -21.06416702270508
v -51.32734680175781 4 -17.50561332702637
v -46.77347946166992 4 -14.22721385955811
v -42 4 -11.25386619567871
v -37.03826522827148 4 -8.606586456298828
v -31.92215538024902 4 -6.30202054977417
v -26.68730354309082 4 -4.352100849151611
v -21.37028694152832 4 -2.76385760307312
v -16.0078010559082 4 -1.539401412010193
v -10.63586330413818 4 -0.6760633587837219
v -5.289078712463379 4 -0.1666793972253799
v -1.187982004435817e-14 4 0
v 5.289078712463379 4 -0.1666793972253799
v 10.63586330413818 4 -0.6760633587837219
v 16.0078010559082 4 -1.539401412010193
v 21.37028694152832 4 -2.76385760307312
v 26.68730354309082 4 -4.352100849151611
v 31.92215538024902 4 -6.30202054977417
v 37.03826522827148 4 -8.606586456298828
v 42 4 -11.25386619567871
v 46.77347946166992 4 -14.22721385955811
v 51.32734680175781 4 -17.50561332702637
v 55.63345336914063 4 -21.06416702270508
v 59.66741943359375 4 -24.87471771240234
v 63.40907287597656 4 -28.90653800964356
v 66.84271240234375 4 -33.12710571289063
v 69.95724487304688 4 -37.50286483764648
v 72.74613189697266 4 -42
vt 0.0196378268301487 0.7526972889900208
vt 0.03547396510839462 0.7271168231964111
vt 0.0531592108309269 0.7022267580032349
vt 0.07265645265579224 0.6782194375991821
vt 0.09390267729759216 0.6552857756614685
vt 0.1168087497353554 0.633610725402832
vt 0.1412601172924042 0.6133690476417542
vt 0.1671183407306671 0.5947209596633911
vt 0.1942235827445984 0.5778080224990845
vt 0.2223977893590927 0.5627498626708984
vt 0.2514486014842987 0.5496411323547363
vt 0.2811736464500427 0.5385496020317078
vt 0.3113652467727661 0.5295154452323914
vt 0.3418150544166565 0.5225505232810974
vt 0.3723185360431671 0.517639696598053
vt 0.4026791751384735 0.5147422552108765
vt 0.4327121376991272 0.5137941241264343
vt 0.4627451300621033 0.5147422552108765
vt 0.4931057691574097 0.517639696598053
vt 0.5236092209815979 0.5225505232810974
vt 0.5540590286254883 0.5295154452323914
vt 0.5842506289482117 0.5385496020317078
vt 0.6139757037162781 0.5496411323547363
vt 0.6430265307426453 0.5627498626708984
vt 0.671200692653656 0.5778080224990845
vt 0.6983059644699097 0.5947209596633911
vt 0.7241641879081726 0.6133690476417542
vt 0.748615562915802 0.633610725402832
vt 0.7715215682983398 0.6552857756614685
vt 0.7927678227424622 0.6782194375991821
vt 0.8122650980949402 0.7022267580032349
vt 0.8299503326416016 0.7271168231964111
vt 0.845786452293396 0.7526972889900208
vt 0.009911496192216873 0
vt 0 0
vt 0.009911496192216873 0.062408447265625
vt 0.009911496192216873 0.187225341796875
vt 0.009911496192216873 0.2496337890625
vt 0.009911496192216873 0.312042236328125
vt 0.009911496192216873 0.499267578125
vt 0 0.499267578125
vt 0.009911496192216873 0.561676025390625
vt 0 0.561676025390625
vt 0.009911496192216873 0.62408447265625
vt 0 0.62408447265625
vt 0.009911496192216873 0.686492919921875
vt 0 0.686492919921875
vt 0.009911496192216873 0.811309814453125
vt 0 0.811309814453125
vt 0.009911496192216873 0.87371826171875
vt 0 0.87371826171875
vt 0.009911496192216873 0.936126708984375
vt 0 0.936126708984375
vt 0.009911496192216873 0.99853515625
vt 0 0.99853515625
vt 0.009911496192216873 0.0312042236328125
vt 0.009911496192216873 0.0936126708984375
vt 0.009911496192216873 0.12481689453125
vt 0.009911496192216873 0.1560211181640625
vt 0.009911496192216873 0.2184295654296875
vt 0.009911496192216873 0.2808380126953125
vt 0.009911496192216873 0.3432464599609375
vt 0.009911496192216873 0.37445068359375
vt 0.009911496192216873 0.4056549072265625
vt 0.009911496192216873 0.436859130859375
vt 0.009911496192216873 0.4680633544921875
vt 0.009911496192216873 0.5304718017578125
vt 0.009911496192216873 0.5928802490234375
vt 0.009911496192216873 0.6552886962890625
vt 0.009911496192216873 0.7176971435546875
vt 0.009911496192216873 0.7489013671875
vt 0.009911496192216873 0.7801055908203125
vt 0.009911496192216873 0.8425140380859375
vt 0.009911496192216873 0.9049224853515625
vt 0.009911496192216873 0.9673309326171875
vt 0 0.9673309326171875
vt 0 0.9049224853515625
vt 0 0.8425140380859375
vt 0 0.7801055908203125
vt 0 0.7489013671875
vt 0 0.7176971435546875
vt 0 0.6552886962890625
vt 0 0.5928802490234375
vt 0 0.5304718017578125
vt 0 0.4680633544921875
vt 0 0.436859130859375
vt 0 0.4056549072265625
vt 0 0.37445068359375
vt 0 0.3432464599609375
vt 0 0.312042236328125
vt 0 0.2808380126953125
vt 0 0.2496337890625
vt 0 0.2184295654296875
vt 0 0.187225341796875
vt 0 0.1560211181640625
vt 0 0.12481689453125
vt 0 0.0936126708984375
vt 0 0.062408447265625
vt 0 0.0312042236328125
vt 0.01137633994221687 0
vt 0.01137633994221687 0.01137633994221687
vt 0.838961124420166 0
vt 0.838961124420166 0.01137633994221687
vt 0.0196378268301487 0.2641023993492127
vt 0.03547396510839462 0.2385219186544418
vt 0.0531592108309269 0.2136318534612656
vt 0.07265645265579224 0.189624547958374
vt 0.09390267729759216 0.1666908711194992
vt 0.1168087497353554 0.1450158208608627
vt 0.1412601172924042 0.1247741505503655
vt 0.1671183407306671 0.1061260625720024
vt 0.1942235827445984 0.08921315521001816
vt 0.2223977893590927 0.07415497303009033
vt 0.2514486014842987 0.06104621663689613
vt 0.2811736464500427 0.04995474219322205
vt 0.3113652467727661 0.04092054069042206
vt 0.3418150544166565 0.03395562618970871
vt 0.3723185360431671 0.02904481440782547
vt 0.4026791751384735 0.02614735066890717
vt 0.4327121376991272 0.02519925124943256
vt 0.4627451300621033 0.02614735066890717
vt 0.4931057691574097 0.02904481440782547
vt 0.5236092209815979 0.03395562618970871
vt 0.5540590286254883 0.04092054069042206
vt 0.5842506289482117 0.04995474219322205
vt 0.6139757037162781 0.06104621663689613
vt 0.6430265307426453 0.07415497303009033
vt 0.671200692653656 0.08921315521001816
vt 0.6983059644699097 0.1061260625720024
vt 0.7241641879081726 0.1247741505503655
vt 0.748615562915802 0.1450158208608627
vt 0.7715215682983398 0.1666908711194992
vt 0.7927678227424622 0.189624547958374
vt 0.8122650980949402 0.2136318534612656
vt 0.8299503326416016 0.2385219186544418
vt 0.845786452293396 0.2641023993492127
vn 0 -1 0
vn 0 -1 0
vn 0 -1 0
vn 0 -1 0
vn 0 -1 0
vn 0 -1 0
vn 0 -1 0
vn 0 -1 0
vn 0 -1 0
vn 0 -1 0
vn 0 -1 0
vn 0 -1 0
vn 0 -1 0
vn 0 -1 0
vn 0 -1 0
vn 0 -1 0
vn 0 -1 0
vn 0 -1 0
vn 0 -1 0
vn 0 -1 0
vn 0 -1 0
vn 0 -1 0
vn 0 -1 0
vn 0 -1 0
vn 0 -1 0
vn 0 -1 0
vn 0 -1 0
vn 0 -1 0
vn 0 -1 0
vn 0 -1 0
vn 0 -1 0
vn 0 -1 0
vn 0 -1 0
vn 0.8660253882408142 0 0.5
vn 0.8660253882408142 0 0.5
vn 0.7957466244697571 0 0.6056297421455383
vn 0.6110398173332214 0 0.7915998697280884
vn 0.5 0 0.8660253882408142
vn 0.3800256550312042 0 0.9249759316444397
vn -1.684881622140641e-15 0 1
vn -1.684881622140641e-15 0 1
vn -0.1266174167394638 0 0.9919516444206238
vn -0.1266174167394638 0 0.9919516444206238
vn -0.2544081807136536 0 0.9670969247817993
vn -0.2544081807136536 0 0.9670969247817993
vn -0.3800256550312042 0 0.9249759316444397
vn -0.3800256550312042 0 0.9249759316444397
vn -0.6110398173332214 0 0.7915998697280884
vn -0.6110398173332214 0 0.7915998697280884
vn -0.7103264331817627 0 0.7038723826408386
vn -0.7103264331817627 0 0.7038723826408386
vn -0.7957466244697571 0 0.6056297421455383
vn -0.7957466244697571 0 0.6056297421455383
vn -0.8660253882408142 0 0.5
vn -0.8660253882408142 0 0.5
vn 0.8328243494033814 0 0.5535373687744141
vn 0.7548699378967285 0 0.6558745503425598
vn 0.7103264331817627 0 0.7038723826408386
vn 0.6623030304908752 0 0.7492361068725586
vn 0.5568271279335022 0 0.8306283950805664
vn 0.4409317374229431 0 0.8975406289100647
vn 0.3177059888839722 0 0.9481892585754395
vn 0.2544081807136536 0 0.9670969247817993
vn 0.1905690580606461 0 0.9816737771034241
vn 0.1266174167394638 0 0.9919516444206238
vn 0.06296522170305252 0 0.9980157017707825
vn -0.06296522170305252 0 0.9980157017707825
vn -0.1905690580606461 0 0.9816737771034241
vn -0.3177059888839722 0 0.9481892585754395
vn -0.4409317374229431 0 0.8975406289100647
vn -0.5 0 0.8660253882408142
vn -0.5568271279335022 0 0.8306283950805664
vn -0.6623030304908752 0 0.7492361068725586
vn -0.7548699378967285 0 0.6558745503425598
vn -0.8328243494033814 0 0.5535373687744141
vn -0.8328243494033814 0 0.5535373687744141
vn -0.7548699378967285 0 0.6558745503425598
vn -0.6623030304908752 0 0.7492361068725586
vn -0.5568271279335022 0 0.8306283950805664
vn -0.5 0 0.8660253882408142
vn -0.4409317374229431 0 0.8975406289100647
vn -0.3177059888839722 0 0.9481892585754395
vn -0.1905690580606461 0 0.9816737771034241
vn -0.06296522170305252 0 0.9980157017707825
vn 0.06296522170305252 0 0.9980157017707825
vn 0.1266174167394638 0 0.9919516444206238
vn 0.1905690580606461 0 0.9816737771034241
vn 0.2544081807136536 0 0.9670969247817993
vn 0.3177059888839722 0 0.9481892585754395
vn 0.3800256550312042 0 0.9249759316444397
vn 0.4409317374229431 0 0.8975406289100647
vn 0.5 0 0.8660253882408142
vn 0.5568271279335022 0 0.8306283950805664
vn 0.6110398173332214 0 0.7915998697280884
vn 0.6623030304908752 0 0.7492361068725586
vn 0.7103264331817627 0 0.7038723826408386
vn 0.7548699378967285 0 0.6558745503425598
vn 0.7957466244697571 0 0.6056297421455383
vn 0.8328243494033814 0 0.5535373687744141
vn 1.301042606982605e-15 0 -1
vn 1.301042606982605e-15 0 -1
vn 1.214306433183765e-15 0 -1
vn 1.214306433183765e-15 0 -1
vn 0 1 0
vn 0 1 0
vn 0 1 0
vn 0 1 0
vn 0 1 0
vn 0 1 0
vn 0 1 0
vn 0 1 0
vn 0 1 0
vn 0 1 0
vn 0 1 0
vn 0 1 0
vn 0 1 0
vn 0 1 0
vn 0 1 0
vn 0 1 0
vn 0 1 0
vn 0 1 0
vn 0 1 0
vn 0 1 0
vn 0 1 0
vn 0 1 0
vn 0 1 0
vn 0 1 0
vn 0 1 0
vn 0 1 0
vn 0 1 0
vn 0 1 0
vn 0 1 0
vn 0 1 0
vn 0 1 0
vn 0 1 0
vn 0 1 0
f 11/11/11 10/10/10 23/23/23
f 9/9/9 24/24/24 10/10/10
f 11/11/11 22/22/22 12/12/12
f 19/19/19 15/15/15 14/14/14
f 14/14/14 13/13/13 20/20/20
f 12/12/12 22/22/22 13/13/13
f 25/25/25 9/9/9 8/8/8
f 30/30/30 4/4/4 3/3/3
f 3/3/3 2/2/2 31/31/31
f 5/5/5 4/4/4 29/29/29
f 26/26/26 8/8/8 7/7/7
f 27/27/27 7/7/7 6/6/6
f 6/6/6 5/5/5 28/28/28
f 32/32/32 2/2/2 1/1/1
f 16/16/16 15/15/15 19/19/19
f 16/16/16 19/19/19 18/18/18
f 19/19/19 14/14/14 20/20/20
f 13/13/13 21/21/21 20/20/20
f 22/22/22 11/11/11 23/23/23
f 24/24/24 23/23/23 10/10/10
f 13/13/13 22/22/22 21/21/21
f 9/9/9 25/25/25 24/24/24
f 26/26/26 7/7/7 27/27/27
f 28/28/28 27/27/27 6/6/6
f 28/28/28 5/5/5 29/29/29
f 31/31/31 30/30/30 3/3/3
f 1/1/1 33/33/33 32/32/32
f 31/31/31 2/2/2 32/32/32
f 30/30/30 29/29/29 4/4/4
f 26/26/26 25/25/25 8/8/8
f 16/16/16 18/18/18 17/17/17
f 34/34/34 35/35/35 99/99/99 56/56/56
f 36/36/36 98/98/98 97/97/97 57/57/57
f 56/56/56 99/99/99 98/98/98 36/36/36
f 58/58/58 96/96/96 95/95/95 59/59/59
f 37/37/37 94/94/94 93/93/93 60/60/60
f 59/59/59 95/95/95 94/94/94 37/37/37
f 57/57/57 97/97/97 96/96/96 58/58/58
f 38/38/38 92/92/92 91/91/91 61/61/61
f 39/39/39 90/90/90 89/89/89 62/62/62
f 61/61/61 91/91/91 90/90/90 39/39/39
f 63/63/63 88/88/88 87/87/87 64/64/64
f 65/65/65 86/86/86 85/85/85 66/66/66
f 64/64/64 87/87/87 86/86/86 65/65/65
f 62/62/62 89/89/89 88/88/88 63/63/63
f 60/60/60 93/93/93 92/92/92 38/38/38
f 41/41/41 40/40/40 66/66/66 85/85/85
f 67/67/67 84/84/84 43/43/43 42/42/42
f 68/68/68 83/83/83 45/45/45 44/44/44
f 42/42/42 43/43/43 83/83/83 68/68/68
f 69/69/69 82/82/82 47/47/47 46/46/46
f 71/71/71 70/70/70 81/81/81 80/80/80
f 70/70/70 46/46/46 47/47/47 81/81/81
f 44/44/44 45/45/45 82/82/82 69/69/69
f 72/72/72 79/79/79 49/49/49 48/48/48
f 50/50/50 73/73/73 78/78/78 51/51/51
f 73/73/73 48/48/48 49/49/49 78/78/78
f 52/52/52 74/74/74 77/77/77 53/53/53
f 54/54/54 75/75/75 76/76/76 55/55/55
f 75/75/75 52/52/52 53/53/53 76/76/76
f 74/74/74 50/50/50 51/51/51 77/77/77
f 71/71/71 80/80/80 79/79/79 72/72/72
f 84/84/84 67/67/67 40/40/40 41/41/41
f 101/101/101 103/103/103 102/102/102 100/100/100
f 114/114/114 126/126/126 113/113/113
f 112/112/112 113/113/113 127/127/127
f 114/114/114 115/115/115 125/125/125
f 122/122/122 117/117/117 118/118/118
f 117/117/117 123/123/123 116/116/116
f 115/115/115 116/116/116 125/125/125
f 128/128/128 111/111/111 112/112/112
f 133/133/133 106/106/106 107/107/107
f 106/106/106 134/134/134 105/105/105
f 108/108/108 132/132/132 107/107/107
f 129/129/129 110/110/110 111/111/111
f 130/130/130 109/109/109 110/110/110
f 109/109/109 131/131/131 108/108/108
f 135/135/135 104/104/104 105/105/105
f 119/119/119 122/122/122 118/118/118
f 119/119/119 121/121/121 122/122/122
f 122/122/122 123/123/123 117/117/117
f 116/116/116 123/123/123 124/124/124
f 125/125/125 126/126/126 114/114/114
f 127/127/127 113/113/113 126/126/126
f 116/116/116 124/124/124 125/125/125
f 112/112/112 127/127/127 128/128/128
f 129/129/129 130/130/130 110/110/110
f 131/131/131 109/109/109 130/130/130
f 131/131/131 132/132/132 108/108/108
f 134/134/134 106/106/106 133/133/133
f 104/104/104 135/135/135 136/136/136
f 134/134/134 135/135/135 105/105/105
f 133/133/133 107/107/107 132/132/132
f 129/129/129 111/111/111 128/128/128
f 119/119/119 120/120/120 121/121/121
