# Rhino

g object_1
v 36.37306594848633 0 21
v -36.37306594848633 4.685141163918161e-14 21
v -6.366462939515552e-14 2.331468351712829e-14 -42
v 24.24871063232422 7.771561172376096e-15 2.664535259100376e-14
v 12.12435531616211 1.554312234475219e-14 -21
v -18.18653297424316 3.508304757815495e-14 -10.5
v -1.06581410364015e-14 2.34257058195908e-14 21
v -6.366462939515552e-14 2.331468351712829e-14 -42
v -6.366462939515552e-14 2 -42
v 36.37306594848633 0 21
v 36.37306594848633 2 21
v 12.12435531616211 1.554312234475219e-14 -21
v 24.24871063232422 7.771561172376096e-15 2.664535259100376e-14
v 24.24871063232422 2 2.664535259100376e-14
v 12.12435531616211 2 -21
v -36.37306594848633 4.685141163918161e-14 21
v -36.37306594848633 2 21
v -6.366462939515552e-14 2.331468351712829e-14 -42
v -6.366462939515552e-14 2 -42
v -18.18653297424316 3.508304757815495e-14 -10.5
v -18.18653297424316 2 -10.5
v 36.37306594848633 0 21
v 36.37306594848633 2 21
v -36.37306594848633 4.685141163918161e-14 21
v -36.37306594848633 2 21
v -1.06581410364015e-14 2.34257058195908e-14 21
v -1.06581410364015e-14 2 21
v 36.37306594848633 2 21
v -36.37306594848633 2 21
v -6.366462939515552e-14 2 -42
v 24.24871063232422 2 2.664535259100376e-14
v 12.12435531616211 2 -21
v -18.18653297424316 2 -10.5
v -1.06581410364015e-14 2 21
vt 0.49853515625 0.5
vt 0 0.5
vt 0.49853515625 0.99853515625
vt 0.49853515625 0.6661784052848816
vt 0.49853515625 0.8323567509651184
vt 0.249267578125 0.749267578125
vt 0.249267578125 0.5
vt 0.539774477481842 0
vt 0.527492880821228 0
vt 0.539774477481842 0.5
vt 0.527492880821228 0.5
vt 0.539774477481842 0.1666666716337204
vt 0.539774477481842 0.3333333432674408
vt 0.527492880821228 0.3333333432674408
vt 0.527492880821228 0.1666666716337204
vt 0.526028037071228 0
vt 0.513746440410614 0
vt 0.526028037071228 0.5
vt 0.513746440410614 0.5
vt 0.526028037071228 0.25
vt 0.513746440410614 0.25
vt 0.512281596660614 0
vt 0.5 0
vt 0.512281596660614 0.5
vt 0.5 0.5
vt 0.512281596660614 0.25
vt 0.5 0.25
vt 0.49853515625 0
vt 0 0
vt 0.49853515625 0.49853515625
vt 0.49853515625 0.1661783903837204
vt 0.49853515625 0.3323567807674408
vt 0.249267578125 0.249267578125
vt 0.249267578125 0
vn -6.44039860318472e-16 -1 1.762258871002625e-18
vn -6.44039860318472e-16 -1 1.762258871002625e-18
vn -6.44039860318472e-16 -1 1.762258871002625e-18
vn -6.44039860318472e-16 -1 1.762258871002625e-18
vn -6.44039860318472e-16 -1 1.762258871002625e-18
vn -6.44039860318472e-16 -1 1.762258871002625e-18
vn -6.44039860318472e-16 -1 1.762258871002625e-18
vn 0.8660253882408142 0 -0.5
vn 0.8660253882408142 0 -0.5
vn 0.8660253882408142 0 -0.5
vn 0.8660253882408142 0 -0.5
vn 0.8660253882408142 0 -0.5
vn 0.8660253882408142 0 -0.5
vn 0.8660253882408142 0 -0.5
vn 0.8660253882408142 0 -0.5
vn -0.8660253882408142 0 -0.5
vn -0.8660253882408142 0 -0.5
vn -0.8660253882408142 0 -0.5
vn -0.8660253882408142 0 -0.5
vn -0.8660253882408142 0 -0.5
vn -0.8660253882408142 0 -0.5
vn 6.407504608073691e-16 0 1
vn 6.407504608073691e-16 0 1
vn 6.407504608073691e-16 0 1
vn 6.407504608073691e-16 0 1
vn 6.348829047630609e-16 0 1
vn 6.348829047630609e-16 0 1
vn 6.407504608073691e-16 1 4.867598081308107e-18
vn 6.407504608073691e-16 1 4.867598081308107e-18
vn 6.407504608073691e-16 1 4.867598081308107e-18
vn 6.418043286124311e-16 1 4.259148424542171e-18
vn 6.42858196417493e-16 1 3.650698767776234e-18
vn 6.407504608073691e-16 1 4.867598081308107e-18
vn 6.407504608073691e-16 1 4.867598081308107e-18
f 4/4/4 1/1/1 7/7/7
f 6/6/6 7/7/7 2/2/2
f 6/6/6 5/5/5 4/4/4
f 5/5/5 6/6/6 3/3/3
f 7/7/7 6/6/6 4/4/4
f 12/12/12 8/8/8 9/9/9 15/15/15
f 15/15/15 14/14/14 13/13/13 12/12/12
f 10/10/10 13/13/13 14/14/14 11/11/11
f 17/17/17 21/21/21 20/20/20 16/16/16
f 18/18/18 20/20/20 21/21/21 19/19/19
f 23/23/23 27/27/27 26/26/26 22/22/22
f 24/24/24 26/26/26 27/27/27 25/25/25
f 31/31/31 34/34/34 28/28/28
f 33/33/33 29/29/29 34/34/34
f 33/33/33 31/31/31 32/32/32
f 32/32/32 30/30/30 33/33/33
f 34/34/34 31/31/31 33/33/33
