# Rhino

mtllib N_center.mtl
usemtl diffuse_Black
v -1200 200 -1200
v 1200 200 1200
v 1200 200 -1200
v -1200 200 -1000
v -1200 200 1200
v 1200 200 1000
v 1000 200 1090
v -1000 200 1090
v -1000 200 1200
v 1000 200 1200
v -1090 200 -1000
v -1090 200 1000
v -1200 200 1000
v 1090 200 1000
v 1090 200 -1000
v 1200 200 -1000
v -1000 200 -1090
v -1000 200 -1200
v 1000 200 -1090
v 1000 200 -1200
v -1000 0 -1200
v -1200 0 -1200
v -1000 200 -1200
v -1200 200 -1200
v -1000 90 -1200
v 1000 0 -1200
v 1200 200 -1200
v 1000 200 -1200
v 1200 0 -1200
v 1000 90 -1200
v 1000 200 -1090
v 1000 0 -1090
v 1000 0 -1200
v 1000 200 -1200
v 1000 90 -1200
v -1000 200 -1090
v 1000 200 -1090
v 1000 0 -1090
v -1000 0 -1090
v -1000 200 -1090
v -1000 0 -1090
v -1000 200 -1200
v -1000 0 -1200
v -1000 90 -1200
v 1090 200 1000
v 1090 0 1000
v 1200 0 1000
v 1200 200 1000
v 1200 90 1000
v 1200 200 1200
v 1200 200 1000
v 1200 0 1200
v 1200 0 1000
v 1200 90 1000
v 1200 0 -1200
v 1200 200 -1000
v 1200 200 -1200
v 1200 0 -1000
v 1200 90 -1000
v 1090 200 -1000
v 1090 0 -1000
v 1090 0 1000
v 1090 200 1000
v 1090 200 -1000
v 1090 0 -1000
v 1200 200 -1000
v 1200 0 -1000
v 1200 90 -1000
v 1200 200 1200
v 1000 0 1200
v 1000 200 1200
v 1200 0 1200
v 1000 90 1200
v -1000 200 1200
v -1200 200 1200
v -1200 0 1200
v -1000 0 1200
v -1000 90 1200
v 1000 200 1200
v 1000 0 1090
v 1000 200 1090
v 1000 0 1200
v 1000 90 1200
v -1000 200 1090
v -1000 0 1090
v -1000 0 1200
v -1000 200 1200
v -1000 90 1200
v -1000 200 1090
v -1000 0 1090
v 1000 200 1090
v 1000 0 1090
v -1200 200 1000
v -1200 200 1200
v -1200 0 1200
v -1200 0 1000
v -1200 90 1000
v -1200 200 -1200
v -1200 0 -1200
v -1200 200 -1000
v -1200 0 -1000
v -1200 90 -1000
v -1200 0 1200
v -1200 0 -1200
v -1000 0 -1200
v 1200 0 -1000
v -1200 0 -1000
v 1000 0 -1200
v 1000 0 -1090
v -1000 0 -1090
v 1200 0 -1200
v 1200 0 1000
v 1090 0 1000
v 1090 0 -1000
v 1200 0 1200
v 1000 0 1090
v -1000 0 1200
v -1000 0 1090
v 1000 0 1200
v -1090 0 1000
v -1200 0 1000
v -1090 0 -1000
v -1090 0 1000
v -1200 200 1000
v -1090 200 1000
v -1200 0 1000
v -1200 90 1000
v -1090 200 -1000
v -1090 0 -1000
v -1200 0 -1000
v -1200 200 -1000
v -1200 90 -1000
v -1090 0 1000
v -1090 200 -1000
v -1090 0 -1000
v -1090 200 1000
vt 0.5 0.3333333432674408
vt 0.99853515625 0.83186846971511841
vt 0.5 0.83186846971511841
vt 0.54154461622238159 0.3333333432674408
vt 0.99853515625 0.3333333432674408
vt 0.95699054002761841 0.83186846971511841
vt 0.97568565607070923 0.79032391309738159
vt 0.97568565607070923 0.3748779296875
vt 0.99853515625 0.3748779296875
vt 0.99853515625 0.79032391309738159
vt 0.54154461622238159 0.35618287324905396
vt 0.95699054002761841 0.35618287324905396
vt 0.95699054002761841 0.3333333432674408
vt 0.95699054002761841 0.80901896953582764
vt 0.54154461622238159 0.80901896953582764
vt 0.54154461622238159 0.83186846971511841
vt 0.52284955978393555 0.3748779296875
vt 0.5 0.3748779296875
vt 0.52284955978393555 0.79032391309738159
vt 0.5 0.79032391309738159
vt 0.91666668653488159 0.083333335816860199
vt 0.875 0.083333335816860199
vt 0.91666668653488159 0.12353515625
vt 0.875 0.12353515625
vt 0.91666668653488159 0.10142415016889572
vt 0.75 0.041666667908430099
vt 0.79166668653488159 0.081868492066860199
vt 0.75 0.081868492066860199
vt 0.79166668653488159 0.041666667908430099
vt 0.75 0.05975748598575592
vt 0.54166668653488159 0
vt 0.5 0
vt 0.5 0.02291666716337204
vt 0.54166668653488159 0.02291666716337204
vt 0.51875001192092896 0.02291666716337204
vt 0.5 0.2083333283662796
vt 0.91666668653488159 0.2083333283662796
vt 0.91666668653488159 0.24853515625
vt 0.5 0.24853515625
vt 0.66666668653488159 0.10625000298023224
vt 0.625 0.10625000298023224
vt 0.66666668653488159 0.083333335816860199
vt 0.625 0.083333335816860199
vt 0.64375001192092896 0.083333335816860199
vt 0.54166668653488159 0.083333335816860199
vt 0.5 0.083333335816860199
vt 0.5 0.10625000298023224
vt 0.54166668653488159 0.10625000298023224
vt 0.51875001192092896 0.10625000298023224
vt 0.79166668653488159 0
vt 0.79166668653488159 0.040201824158430099
vt 0.75 0
vt 0.75 0.040201824158430099
vt 0.76875001192092896 0.040201824158430099
vt 0.75 0.125
vt 0.79166668653488159 0.1652018278837204
vt 0.75 0.1652018278837204
vt 0.79166668653488159 0.125
vt 0.79166668653488159 0.14309081435203552
vt 0.5 0.1666666716337204
vt 0.5 0.2068684846162796
vt 0.91666668653488159 0.2068684846162796
vt 0.91666668653488159 0.1666666716337204
vt 0.66666668653488159 0.14791665971279144
vt 0.625 0.14791665971279144
vt 0.66666668653488159 0.125
vt 0.625 0.125
vt 0.64375001192092896 0.125
vt 0.79166668653488159 0.083333335816860199
vt 0.75 0.12353515625
vt 0.75 0.083333335816860199
vt 0.79166668653488159 0.12353515625
vt 0.75 0.10544433444738388
vt 0.91666668653488159 0.125
vt 0.875 0.125
vt 0.875 0.1652018278837204
vt 0.91666668653488159 0.1652018278837204
vt 0.91666668653488159 0.14711099863052368
vt 0.54166668653488159 0.125
vt 0.5 0.14791665971279144
vt 0.54166668653488159 0.14791665971279144
vt 0.5 0.125
vt 0.51875001192092896 0.125
vt 0.66666668653488159 0
vt 0.625 0
vt 0.625 0.02291666716337204
vt 0.66666668653488159 0.02291666716337204
vt 0.64375001192092896 0.02291666716337204
vt 0.91666668653488159 0.25
vt 0.91666668653488159 0.2902018129825592
vt 0.5 0.25
vt 0.5 0.2902018129825592
vt 0.875 0.041666667908430099
vt 0.91666668653488159 0.041666667908430099
vt 0.91666668653488159 0.081868492066860199
vt 0.875 0.081868492066860199
vt 0.875 0.06377767026424408
vt 0.875 0
vt 0.875 0.040201824158430099
vt 0.91666668653488159 0
vt 0.91666668653488159 0.040201824158430099
vt 0.91666668653488159 0.02211100235581398
vt 0 0
vt 0 0.5
vt 0.041544597595930099 0.5
vt 0.49853515625 0.4583333432674408
vt 0 0.4583333432674408
vt 0.4569905698299408 0.5
vt 0.4569905698299408 0.47708332538604736
vt 0.041544597595930099 0.47708332538604736
vt 0.49853515625 0.5
vt 0.49853515625 0.041666667908430099
vt 0.47568562626838684 0.041666667908430099
vt 0.47568562626838684 0.4583333432674408
vt 0.49853515625 0
vt 0.4569905698299408 0.02291666716337204
vt 0.041544597595930099 0
vt 0.041544597595930099 0.02291666716337204
vt 0.4569905698299408 0
vt 0.02284952811896801 0.041666667908430099
vt 0 0.041666667908430099
vt 0.02284952811896801 0.4583333432674408
vt 0.625 0.064583331346511841
vt 0.66666668653488159 0.041666667908430099
vt 0.66666668653488159 0.064583331346511841
vt 0.625 0.041666667908430099
vt 0.64375001192092896 0.041666667908430099
vt 0.54166668653488159 0.041666667908430099
vt 0.5 0.041666667908430099
vt 0.5 0.064583331346511841
vt 0.54166668653488159 0.064583331346511841
vt 0.51875001192092896 0.064583331346511841
vt 0.5 0.3318684995174408
vt 0.91666668653488159 0.2916666567325592
vt 0.91666668653488159 0.3318684995174408
vt 0.5 0.2916666567325592
vn 0 1 0
vn 0 1 0
vn 0 1 0
vn 0 1 0
vn 0 1 0
vn 0 1 0
vn 0 1 0
vn 0 1 0
vn 0 1 0
vn 0 1 0
vn 0 1 0
vn 0 1 0
vn 0 1 0
vn 0 1 0
vn 0 1 0
vn 0 1 0
vn 0 1 0
vn 0 1 0
vn 0 1 0
vn 0 1 0
vn 0 0 -1
vn 0 0 -1
vn 0 0 -1
vn 0 0 -1
vn 0 0 -1
vn 0 0 -1
vn 0 0 -1
vn 0 0 -1
vn 0 0 -1
vn 0 0 -1
vn -1 0 0
vn -1 0 0
vn -1 0 0
vn -1 0 0
vn -1 0 0
vn 0 0 -1
vn 0 0 -1
vn 0 0 -1
vn 0 0 -1
vn 1 0 0
vn 1 0 0
vn 1 0 0
vn 1 0 0
vn 1 0 0
vn 0 0 -1
vn 0 0 -1
vn 0 0 -1
vn 0 0 -1
vn 0 0 -1
vn 1 0 0
vn 1 0 0
vn 1 0 0
vn 1 0 0
vn 1 0 0
vn 1 0 0
vn 1 0 0
vn 1 0 0
vn 1 0 0
vn 1 0 0
vn 1 0 0
vn 1 0 0
vn 1 0 0
vn 1 0 0
vn 0 0 1
vn 0 0 1
vn 0 0 1
vn 0 0 1
vn 0 0 1
vn 0 0 1
vn 0 0 1
vn 0 0 1
vn 0 0 1
vn 0 0 1
vn 0 0 1
vn 0 0 1
vn 0 0 1
vn 0 0 1
vn 0 0 1
vn -1 0 0
vn -1 0 0
vn -1 0 0
vn -1 0 0
vn -1 0 0
vn 1 0 0
vn 1 0 0
vn 1 0 0
vn 1 0 0
vn 1 0 0
vn 0 0 1
vn 0 0 1
vn 0 0 1
vn 0 0 1
vn -1 0 0
vn -1 0 0
vn -1 0 0
vn -1 0 0
vn -1 0 0
vn -1 0 0
vn -1 0 0
vn -1 0 0
vn -1 0 0
vn -1 0 0
vn 0 -1 0
vn 0 -1 0
vn 0 -1 0
vn 0 -1 0
vn 0 -1 0
vn 0 -1 0
vn 0 -1 0
vn 0 -1 0
vn 0 -1 0
vn 0 -1 0
vn 0 -1 0
vn 0 -1 0
vn 0 -1 0
vn 0 -1 0
vn 0 -1 0
vn 0 -1 0
vn 0 -1 0
vn 0 -1 0
vn 0 -1 0
vn 0 -1 0
vn 0 0 -1
vn 0 0 -1
vn 0 0 -1
vn 0 0 -1
vn 0 0 -1
vn 0 0 1
vn 0 0 1
vn 0 0 1
vn 0 0 1
vn 0 0 1
vn -1 0 0
vn -1 0 0
vn -1 0 0
vn -1 0 0
f 12/12/12 13/13/13 5/5/5 9/9/9 8/8/8 7/7/7 10/10/10 2/2/2 6/6/6 \
14/14/14 15/15/15 16/16/16 3/3/3 20/20/20 19/19/19 17/17/17 18/18/18 \
1/1/1 4/4/4 11/11/11
f 25/25/25 21/21/21 22/22/22 24/24/24 23/23/23
f 29/29/29 26/26/26 30/30/30 28/28/28 27/27/27
f 32/32/32 31/31/31 34/34/34 35/35/35 33/33/33
f 44/44/44 42/42/42 40/40/40 41/41/41 43/43/43
f 46/46/46 45/45/45 48/48/48 49/49/49 47/47/47
f 52/52/52 53/53/53 54/54/54 51/51/51 50/50/50
f 59/59/59 58/58/58 55/55/55 57/57/57 56/56/56
f 68/68/68 66/66/66 64/64/64 65/65/65 67/67/67
f 69/69/69 71/71/71 73/73/73 70/70/70 72/72/72
f 78/78/78 74/74/74 75/75/75 76/76/76 77/77/77
f 83/83/83 79/79/79 81/81/81 80/80/80 82/82/82
f 85/85/85 84/84/84 87/87/87 88/88/88 86/86/86
f 94/94/94 93/93/93 97/97/97 96/96/96 95/95/95
f 102/102/102 100/100/100 98/98/98 99/99/99 101/101/101
f 103/103/103 121/121/121 120/120/120 122/122/122 107/107/107 \
104/104/104 105/105/105 110/110/110 109/109/109 108/108/108 111/111/111 \
106/106/106 114/114/114 113/113/113 112/112/112 115/115/115 119/119/119 \
116/116/116 118/118/118 117/117/117
f 127/127/127 124/124/124 125/125/125 123/123/123 126/126/126
f 129/129/129 128/128/128 131/131/131 132/132/132 130/130/130
f 39/39/39 36/36/36 37/37/37 38/38/38
f 61/61/61 60/60/60 63/63/63 62/62/62
f 92/92/92 91/91/91 89/89/89 90/90/90
f 133/133/133 136/136/136 134/134/134 135/135/135
