# Rhino

mtllib Center.mtl
usemtl diffuse_Black
v -1300 0 1300
v -1300 0 -1300
v 1300 0 1300
v 1300 0 -1300
v 1300 0 1300
v 1300 200 1300
v -1300 0 1300
v -1300 200 1300
v 1300 0 -1300
v 1300 200 -1300
v 1300 0 1300
v 1300 200 1300
v -1300 0 -1300
v -1300 200 -1300
v 1300 0 -1300
v 1300 200 -1300
v -1300 0 1300
v -1300 200 1300
v -1300 0 -1300
v -1300 200 -1300
v -1300 200 1300
v -1300 200 -1300
v 1300 200 1300
v 1300 200 -1300
vt 0.6523813009262085 0.5
vt 0.15384615957736969 0.5
vt 0.6523813009262085 0.99853515625
vt 0.15384615957736969 0.99853515625
vt 0.075458236038684845 0
vt 0.038461539894342422 0
vt 0.075458236038684845 0.5
vt 0.038461539894342422 0.5
vt 0.15238131582736969 0
vt 0.11538461595773697 0
vt 0.15238131582736969 0.5
vt 0.11538461595773697 0.5
vt 0.036996696144342422 0
vt 0 0
vt 0.036996696144342422 0.5
vt 0 0.5
vt 0.11391977220773697 0
vt 0.076923079788684845 0
vt 0.11391977220773697 0.5
vt 0.076923079788684845 0.5
vt 0.6523813009262085 0
vt 0.15384615957736969 0
vt 0.6523813009262085 0.49853515625
vt 0.15384615957736969 0.49853515625
vn 0 -1 0
vn 0 -1 0
vn 0 -1 0
vn 0 -1 0
vn 0 0 1
vn 0 0 1
vn 0 0 1
vn 0 0 1
vn 1 0 0
vn 1 0 0
vn 1 0 0
vn 1 0 0
vn 0 0 -1
vn 0 0 -1
vn 0 0 -1
vn 0 0 -1
vn -1 0 0
vn -1 0 0
vn -1 0 0
vn -1 0 0
vn 0 1 0
vn 0 1 0
vn 0 1 0
vn 0 1 0
f 2/2/2 4/4/4 3/3/3 1/1/1
f 6/6/6 8/8/8 7/7/7 5/5/5
f 10/10/10 12/12/12 11/11/11 9/9/9
f 14/14/14 16/16/16 15/15/15 13/13/13
f 18/18/18 20/20/20 19/19/19 17/17/17
f 22/22/22 21/21/21 23/23/23 24/24/24
